<?xml version="1.0" encoding="UTF-8"?>
<svg version="1.1" xmlns="http://www.w3.org/2000/svg" width="1280" height="306">
<path d="M0 0 C422.4 0 844.8 0 1280 0 C1280 100.98 1280 201.96 1280 306 C857.6 306 435.2 306 0 306 C0 205.02 0 104.04 0 0 Z " fill="#FEFEFE" transform="translate(0,0)"/>
<path d="M0 0 C13.2 0 26.4 0 40 0 C40.66 4.29 41.32 8.58 42 13 C45.77293227 23.98589103 51.45422717 34.28199548 62 40 C68.0860472 42.57021213 73.73254455 43.5487354 80.3125 43.5 C81.1362915 43.49935547 81.96008301 43.49871094 82.80883789 43.49804688 C89.07886799 43.34594207 94.0411588 42.00026307 99.65234375 39.09375 C102 38 102 38 106 38 C107.5703125 39.3984375 107.5703125 39.3984375 109.125 41.375 C111.9267836 44.77802471 114.85372343 47.91110234 118 51 C127.52674803 60.45391356 127.52674803 60.45391356 130 64 C130 64.99 130 65.98 130 67 C120.27280791 73.26187991 111.31340074 76.69830812 100 79 C99.40388916 79.1750708 98.80777832 79.3501416 98.19360352 79.53051758 C93.43054324 80.5499238 88.44666325 80.22619016 83.5949707 80.24023438 C81.60030075 80.24981837 79.60577161 80.28095171 77.61132812 80.3125 C55.74607522 80.39965597 37.49889153 72.27021936 22 57 C15.93994496 50.95072798 11.69712641 44.71400429 8 37 C7.46117188 35.88109375 6.92234375 34.7621875 6.3671875 33.609375 C1.04721142 21.94140814 0 12.87132223 0 0 Z " fill="#040304" transform="translate(57,155)"/>
<path d="M0 0 C7.56436656 5.31516122 12.10111037 12.65901329 14.5390625 21.52734375 C14.76953125 24.74609375 14.76953125 24.74609375 14.7265625 28.02734375 C14.72011719 29.11015625 14.71367188 30.19296875 14.70703125 31.30859375 C14.54301785 34.45154819 14.12084805 37.43689892 13.5390625 40.52734375 C12.8790625 40.52734375 12.2190625 40.52734375 11.5390625 40.52734375 C11.4978125 41.18734375 11.4565625 41.84734375 11.4140625 42.52734375 C9.38205598 49.49422324 3.55157168 55.61168267 -2.4609375 59.52734375 C-12.03287933 64.47463953 -22.95867537 65.10495851 -33.34765625 62.33203125 C-41.69849003 59.15223133 -47.86291084 53.08346883 -52.4609375 45.52734375 C-56.52655305 36.0905347 -58.03564325 27.76562314 -54.8359375 17.96484375 C-51.01412953 8.36338934 -44.40772159 0.64799744 -35.0234375 -3.84765625 C-23.40979565 -8.06114217 -10.4437279 -6.24965939 0 0 Z " fill="#FD5807" transform="translate(1190.4609375,122.47265625)"/>
<path d="M0 0 C0.75539063 0.00128906 1.51078125 0.00257812 2.2890625 0.00390625 C7.46814534 0.08399516 12.02040685 0.96034285 17 2.375 C17 3.035 17 3.695 17 4.375 C17.58007812 4.47941406 18.16015625 4.58382812 18.7578125 4.69140625 C25.96516642 6.88877025 30.34059924 13.94542483 33.87109375 20.140625 C37.48137674 27.28623701 37.50522718 37.75391726 35.4375 45.47558594 C31.57014258 55.98996393 24.85663535 62.89767329 14.859375 67.6484375 C6.42820823 70.94296905 -4.53587495 70.44405298 -13 67.375 C-21.98434857 63.29432259 -28.18187536 56.04315937 -32 47.0625 C-35.24595995 37.61070476 -35.11154208 29.18254488 -31.33203125 19.9140625 C-29.16230186 15.77821469 -26.35600624 12.59147863 -23 9.375 C-22.50371094 8.89289063 -22.00742187 8.41078125 -21.49609375 7.9140625 C-14.96889108 2.04491569 -8.66247274 -0.28086516 0 0 Z " fill="#FD5707" transform="translate(886,116.625)"/>
<path d="M0 0 C30 0 30 0 43 3 C43 3.66 43 4.32 43 5 C44.0209375 5.309375 44.0209375 5.309375 45.0625 5.625 C52.27527372 9.00119195 56.54622087 14.11514897 59.890625 21.31640625 C62.55674728 30.16905877 62.8851874 41.17365418 58.9375 49.6875 C57.5390625 51.9296875 57.5390625 51.9296875 56 54 C55.49210937 54.72445312 54.98421875 55.44890625 54.4609375 56.1953125 C47.34314328 65.33712403 39.21019296 66.9617831 28 69 C18.76 69 9.52 69 0 69 C0 46.23 0 23.46 0 0 Z " fill="#FC5A09" transform="translate(1046,117)"/>
<path d="M0 0 C5.61 0 11.22 0 17 0 C20.24661259 3.24661259 21.86826707 5.1532867 23.89501953 9.00830078 C25.72271646 12.30267806 27.84919279 15.39821889 29.93066406 18.53613281 C31.62238954 21.08923713 33.29135419 23.65527267 34.94921875 26.23046875 C35.46274902 27.02759277 35.9762793 27.8247168 36.50537109 28.64599609 C38.36097666 31.56852939 40.15693072 34.52575208 41.93286133 37.49731445 C42.94103634 39.16648001 42.94103634 39.16648001 45 40 C45 26.8 45 13.6 45 0 C50.28 0 55.56 0 61 0 C61 22.11 61 44.22 61 67 C55.39 67 49.78 67 44 67 C40.27212668 62.7543665 38.41209948 59.89957708 36 55 C34.56250234 52.6249462 33.03086437 50.31562565 31.5 48 C30.74845364 46.83172249 29.99844797 45.66245239 29.25 44.4921875 C27.01920245 41.02356936 24.76889422 37.56885731 22.5 34.125 C21.8503125 33.13757813 21.200625 32.15015625 20.53125 31.1328125 C20.0259375 30.42898437 19.520625 29.72515625 19 29 C18.67 29 18.34 29 18 29 C17.67 41.87 17.34 54.74 17 68 C11.39 68 5.78 68 0 68 C0 45.56 0 23.12 0 0 Z " fill="#FC5907" transform="translate(952,118)"/>
<path d="M0 0 C19.40500143 2.11690925 39.4876315 9.55425664 52.53515625 24.79296875 C59.31047061 33.47438178 68 45.64900703 68 57 C61.84382857 57.22293923 55.69001715 57.38599806 49.53076172 57.49438477 C47.43724638 57.53957205 45.34401395 57.60093836 43.25146484 57.67895508 C40.23724669 57.78849792 37.22678656 57.83923682 34.2109375 57.87890625 C33.27945892 57.92535782 32.34798035 57.97180939 31.38827515 58.01966858 C28.64823993 58.02178409 26.58528475 57.91984756 24 57 C21.40622536 54.27791942 19.77626787 51.2874291 18 48 C15.92137068 45.70795105 15.92137068 45.70795105 13.75 44.125 C13.08484375 43.59132812 12.4196875 43.05765625 11.734375 42.5078125 C7.71122861 40.28933463 3.41905076 39.19500188 -1 38 C-1.02497729 34.0347593 -1.0429894 30.06954995 -1.05493164 26.10424805 C-1.06235104 24.10268542 -1.07506659 22.10114467 -1.08789062 20.09960938 C-1.10499609 13.30874075 -0.93798004 6.72834499 0 0 Z " fill="#040305" transform="translate(148,69)"/>
<path d="M0 0 C6.30001582 4.26844982 11.88938622 10.15744797 13.62890625 17.7421875 C13.75136719 18.48726562 13.87382813 19.23234375 14 20 C11.10190611 20.16250994 8.21295149 20.28107636 5.3125 20.375 C4.08756836 20.45041016 4.08756836 20.45041016 2.83789062 20.52734375 C-3.18801969 20.67372214 -3.18801969 20.67372214 -5.55712891 18.70800781 C-6.76571526 17.18512421 -7.88616089 15.59349235 -9 14 C-13.68022385 10.7735531 -19.57576469 11.19062457 -25 12 C-29.03143652 14.04391013 -31.29509164 17.04496287 -33.9375 20.625 C-35.98949331 27.1430964 -36.21260284 34.20465481 -33.3125 40.5 C-31.0148728 44.43294905 -28.07412863 46.96293569 -24 49 C-18.00288865 49.56088092 -13.12651698 49.45741843 -8 46 C-6.95199219 44.71609375 -6.95199219 44.71609375 -5.8828125 43.40625 C-1.93455292 40.11068374 0.84974451 40.41710678 5.8125 40.6875 C6.60076172 40.71005859 7.38902344 40.73261719 8.20117188 40.75585938 C10.13493929 40.81445839 12.06772167 40.90413173 14 41 C14 42.65 14 44.3 14 46 C13.34 46 12.68 46 12 46 C11.90203125 46.57492188 11.8040625 47.14984375 11.703125 47.7421875 C10.39096859 51.95566752 7.14055 54.99829536 4 58 C1.0625 59.5 1.0625 59.5 -1 60 C-1 60.66 -1 61.32 -1 62 C-10.35205054 65.77678964 -22.51746065 67.33318438 -32.0625 63.3125 C-33.39759409 62.58149791 -34.71255942 61.81199572 -36 61 C-36.62132812 60.649375 -37.24265625 60.29875 -37.8828125 59.9375 C-45.32938778 55.29547905 -49.68967213 47.29298744 -52 39 C-53.46663829 29.19413801 -53.05690475 19.15011541 -47.890625 10.51953125 C-36.60266012 -4.52331451 -16.8539807 -9.17094616 0 0 Z " fill="#FC5808" transform="translate(810,121)"/>
<path d="M0 0 C4.780435 3.71088242 8.13774446 7.762229 10.0078125 13.55859375 C10.8450094 21.16150975 10.87689837 28.35662963 6.0078125 34.55859375 C0.39002766 40.58277153 -4.56586869 43.51599692 -12.8671875 43.93359375 C-19.96624833 43.75265817 -24.67705847 41.00899603 -29.8046875 36.24609375 C-35.63259589 29.92587346 -36.68865427 24.2568571 -36.46484375 15.78125 C-35.4341432 8.75374626 -31.2800749 4.3463304 -25.8671875 0.05859375 C-18.14158835 -5.52617672 -7.87412525 -4.98130146 0 0 Z " fill="#FD5605" transform="translate(148.9921875,133.44140625)"/>
<path d="M0 0 C10 0 10 0 12.71484375 2.69921875 C13.49114142 4.00828311 14.22938217 5.34033382 14.9375 6.6875 C15.83839807 8.23023668 16.74371898 9.77039519 17.65234375 11.30859375 C18.1613623 12.19015137 18.67038086 13.07170898 19.19482422 13.97998047 C22.51446231 19.53366226 26.13114855 24.89673814 29.70315552 30.29019165 C31.78958102 33.44322517 33.86432499 36.60386958 35.9375 39.765625 C36.64777344 40.84618164 37.35804688 41.92673828 38.08984375 43.04003906 C43 50.64877301 43 50.64877301 43 53 C43.66 53 44.32 53 45 53 C45 35.51 45 18.02 45 0 C47.64 0 50.28 0 53 0 C53 22.44 53 44.88 53 68 C45 68 45 68 42.92578125 66.296875 C42.39339844 65.45640625 41.86101562 64.6159375 41.3125 63.75 C40.65507812 62.74710938 39.99765625 61.74421875 39.3203125 60.7109375 C38.9584082 60.13053711 38.59650391 59.55013672 38.22363281 58.95214844 C36.84423423 56.7514958 35.42112146 54.5828687 33.9921875 52.4140625 C30.62935611 47.29655715 27.31210689 42.15042883 24 37 C22.4396222 34.57694741 20.8784846 32.15439427 19.31567383 29.73291016 C18.38027179 28.28312418 17.44642343 26.83233415 16.5144043 25.38037109 C16.09457275 24.72891113 15.67474121 24.07745117 15.2421875 23.40625 C14.8797998 22.84228516 14.51741211 22.27832031 14.14404297 21.69726562 C12.8314858 19.74999771 11.40899862 17.87866483 10 16 C9.67 33.16 9.34 50.32 9 68 C6.03 68 3.06 68 0 68 C0 45.56 0 23.12 0 0 Z " fill="#0D0C0E" transform="translate(270,118)"/>
<path d="M0 0 C2.97 0 5.94 0 9 0 C9.01401855 2.22484131 9.01401855 2.22484131 9.02832031 4.49462891 C9.0682495 10.00762758 9.1340176 15.52006996 9.20751953 21.03271484 C9.23571195 23.41675663 9.25693503 25.80089158 9.27099609 28.18505859 C9.29244869 31.61604452 9.33911364 35.04591224 9.390625 38.4765625 C9.39185364 39.53928375 9.39308228 40.602005 9.39434814 41.69692993 C9.53796064 48.98427365 10.56728451 52.68123357 15.8828125 57.8203125 C20.1767549 60.21287819 25.17667032 60.13541434 30 60 C33.52248006 58.74505538 33.52248006 58.74505538 36 57 C36.66 57 37.32 57 38 57 C38.309375 56.21625 38.61875 55.4325 38.9375 54.625 C40 52 40 52 41 50 C41.11856636 48.3972902 41.17706124 46.78994647 41.20532227 45.18310547 C41.22526749 44.18221893 41.24521271 43.1813324 41.26576233 42.15011597 C41.28247482 41.06674957 41.29918732 39.98338318 41.31640625 38.8671875 C41.33718735 37.76021515 41.35796844 36.6532428 41.37937927 35.51272583 C41.44490991 31.96688201 41.50377614 28.42096246 41.5625 24.875 C41.60568187 22.4752525 41.64929605 20.07551273 41.69335938 17.67578125 C41.80059488 11.78393487 41.90235472 5.89201269 42 0 C44.97 0 47.94 0 51 0 C51.12422695 6.93759744 51.214637 13.87453772 51.2746582 20.81298828 C51.29969708 23.16987395 51.33373841 25.52668279 51.37719727 27.88330078 C51.4383159 31.28437328 51.46631727 34.6844132 51.48828125 38.0859375 C51.51408768 39.12801361 51.5398941 40.17008972 51.56648254 41.2437439 C51.56941775 49.01811941 49.84848751 55.68719069 44.55683899 61.61727905 C38.71873121 66.77513964 33.19370732 68.54377151 25.625 68.4375 C24.86985107 68.42920166 24.11470215 68.42090332 23.33666992 68.41235352 C16.66923375 68.20947863 12.24660084 67.02218143 7.3046875 62.421875 C0.41361414 55.03144849 -0.43605687 48.15194152 -0.29296875 38.37890625 C-0.28872391 37.27900864 -0.28447906 36.17911102 -0.28010559 35.04588318 C-0.26338402 31.55116755 -0.22574295 28.05703979 -0.1875 24.5625 C-0.17244478 22.18555523 -0.15875784 19.80860138 -0.14648438 17.43164062 C-0.1135017 11.62086907 -0.06176365 5.81053403 0 0 Z " fill="#100E10" transform="translate(602,118)"/>
<path d="M0 0 C4.50422258 3.58328488 7.48232414 6.31639771 8.625 12.125 C8.7075 13.176875 8.79 14.22875 8.875 15.3125 C5.905 15.3125 2.935 15.3125 -0.125 15.3125 C-0.516875 14.384375 -0.90875 13.45625 -1.3125 12.5 C-3.3362248 8.9410357 -4.49836782 8.061696 -8.125 6.3125 C-13.66044964 5.42918357 -18.50790313 5.34846148 -23.375 8.25 C-25.36965861 11.74065257 -25.75457228 14.08076604 -25.88671875 18.03125 C-24.692553 21.60762333 -22.24914967 23.43200607 -19.125 25.3125 C-16.02268405 26.5851558 -12.8573013 27.4927778 -9.625 28.375 C-2.35890619 30.3921038 3.54860595 32.1902343 8.25 38.5 C10.74490641 43.40595042 10.84483862 48.2776679 9.1796875 53.48828125 C6.66644664 59.09555393 3.21008698 62.6420051 -2.33203125 65.41796875 C-9.54100963 67.72685833 -19.5441997 67.7197526 -26.3125 64.25 C-31.39232262 60.8116497 -34.52464085 56.85248102 -35.9375 50.875 C-35.999375 50.029375 -36.06125 49.18375 -36.125 48.3125 C-32.825 48.3125 -29.525 48.3125 -26.125 48.3125 C-25.47395833 50.03776042 -24.82291667 51.76302083 -24.171875 53.48828125 C-22.8058991 55.86854522 -21.49488244 56.92972149 -19.125 58.3125 C-13.8670612 59.20626908 -8.72320314 59.04846322 -4 56.4375 C-1.09177253 54.6239261 -1.09177253 54.6239261 -0.125 52.3125 C0.28832089 49.25392539 0.33864912 46.36712947 -0.125 43.3125 C-4.2052608 38.31088999 -11.14340547 37.16936917 -17.12890625 35.44921875 C-25.05791282 33.03776869 -30.47169498 30.29245753 -35.125 23.3125 C-35.93049772 17.70252914 -36.47415167 11.82889525 -33.734375 6.71875 C-25.62173151 -2.73424328 -11.19653998 -7.26564159 0 0 Z " fill="#0F0D0F" transform="translate(553.125,119.6875)"/>
<path d="M0 0 C4.93224849 2.65805462 8.72350845 5.29821208 10.85546875 10.59765625 C12.54551503 17.7148934 12.43510918 24.84448377 8.6875 31.24609375 C5.90273513 34.92504918 2.83885817 37.45735978 -1.58984375 38.93359375 C-8.1277965 39.26049139 -13.52661488 38.78577865 -19.27734375 35.30859375 C-23.69382468 30.77274847 -25.81418499 26.23678951 -26.02734375 19.87109375 C-25.68891297 12.50458376 -22.77959999 7.12334999 -17.58984375 1.93359375 C-11.69108199 -1.405328 -6.30673883 -2.59689246 0 0 Z " fill="#FEFAF8" transform="translate(1176.58984375,132.06640625)"/>
<path d="M0 0 C5.62900525 2.61912439 8.35872709 6.16504375 11.76953125 11.28125 C12.58496908 19.2744371 13.02230556 27.7068099 7.76953125 34.28125 C2.43402899 39.35648386 -2.17021126 39.63112281 -9.28125 39.5625 C-14.48336269 39.06640448 -17.01925136 36.55975724 -20.48046875 32.90625 C-24.41428077 27.00553197 -24.90258088 21.20069942 -24.23046875 14.28125 C-22.44972647 7.71476284 -18.50840497 4.24810652 -13.23046875 0.28125 C-9.17881947 -1.74457464 -4.23985291 -1.36625733 0 0 Z " fill="#FEFBF9" transform="translate(893.23046875,131.71875)"/>
<path d="M0 0 C11.88 0 23.76 0 36 0 C36 2.31 36 4.62 36 7 C26.76 7 17.52 7 8 7 C8.33 14.26 8.66 21.52 9 29 C16.92 29.33 24.84 29.66 33 30 C33 32.31 33 34.62 33 37 C24.75 37 16.5 37 8 37 C8 44.59 8 52.18 8 60 C17.24 60 26.48 60 36 60 C36 62.64 36 65.28 36 68 C24.12 68 12.24 68 0 68 C0 45.56 0 23.12 0 0 Z " fill="#0B090C" transform="translate(365,118)"/>
<path d="M0 0 C0 11.88 0 23.76 0 36 C-10 41 -10 41 -14 40 C-15.703125 38.66015625 -15.703125 38.66015625 -17.25 37.0625 C-17.77078125 36.53785156 -18.2915625 36.01320312 -18.828125 35.47265625 C-20 34 -20 34 -20 32 C-20.88751953 31.61908203 -20.88751953 31.61908203 -21.79296875 31.23046875 C-24.2430973 29.86446788 -25.5359582 28.47063789 -27.3125 26.3125 C-30.68032676 22.32505143 -34.26021316 18.63748264 -38 15 C-36.95087394 11.89349686 -35.99204212 10.99500166 -33.1640625 9.21875 C-21.82575091 3.71228521 -12.92279293 0 0 0 Z " fill="#080709" transform="translate(128,70)"/>
<path d="M0 0 C16.48958333 0 16.48958333 0 23.4375 5.4375 C27.42681993 9.42681993 28.2629401 12.04005691 28.32226562 17.74609375 C28.31904297 18.44863281 28.31582031 19.15117187 28.3125 19.875 C28.32861328 20.56980469 28.34472656 21.26460937 28.36132812 21.98046875 C28.36581361 26.74405516 27.50482823 29.96111429 25 34 C16.763296 41.60311138 12.77413536 40 0 40 C0 26.8 0 13.6 0 0 Z " fill="#FEFAF7" transform="translate(1062,131)"/>
<path d="M0 0 C0.66 0 1.32 0 2 0 C3.41674805 1.44018555 3.41674805 1.44018555 5.07421875 3.44921875 C9.08035325 8.16128004 13.40347928 12.47995839 17.8125 16.8125 C19.32132992 18.29582138 20.82794327 19.78140176 22.33203125 21.26953125 C22.98921143 21.91510986 23.6463916 22.56068848 24.32348633 23.22583008 C26 25 26 25 28 28 C27.67 30.64 27.34 33.28 27 36 C13.47 36 -0.06 36 -14 36 C-12.67616052 22.76160516 -8.47494108 10.50630583 0 0 Z " fill="#090709" transform="translate(72,100)"/>
<path d="M0 0 C15.18 0 30.36 0 46 0 C46 2.31 46 4.62 46 7 C40.06 7 34.12 7 28 7 C28 27.13 28 47.26 28 68 C25.03 68 22.06 68 19 68 C19 47.87 19 27.74 19 7 C12.73 7 6.46 7 0 7 C0 4.69 0 2.38 0 0 Z " fill="#0F0D10" transform="translate(436,118)"/>
<path d="M0 0 C2.97 0 5.94 0 9 0 C9 19.8 9 39.6 9 60 C16.59 60 24.18 60 32 60 C32 62.64 32 65.28 32 68 C21.44 68 10.88 68 0 68 C0 45.56 0 23.12 0 0 Z " fill="#151316" transform="translate(694,118)"/>
<path d="M0 0 C13.53 0 27.06 0 41 0 C38.94185504 6.17443488 36.89218614 11.61691762 33.9375 17.3125 C33.58623047 18.00150391 33.23496094 18.69050781 32.87304688 19.40039062 C32.20675896 20.70651647 31.53814818 22.01146122 30.86669922 23.31494141 C29.89587262 25.2024471 28.94335595 27.09862453 28 29 C21.22480207 25.95927936 16.71779016 19.72283853 11.9765625 14.19140625 C8.79525819 10.664308 5.36210011 7.39480875 1.94140625 4.1015625 C0 2 0 2 0 0 Z " fill="#0D0C0E" transform="translate(176,178)"/>
<path d="M0 0 C-1.50982731 3.42856619 -3.51713969 5.95678216 -6 8.75 C-7.051875 9.94882813 -7.051875 9.94882813 -8.125 11.171875 C-10 13 -10 13 -12 13 C-10.66182195 9.02031425 -8.99662286 6.61251238 -6 3.6875 C-5.29875 2.99011719 -4.5975 2.29273437 -3.875 1.57421875 C-2 0 -2 0 0 0 Z " fill="#F65F26" transform="translate(1151,122)"/>
<path d="M0 0 C-1.5830577 4.2742558 -4.50568404 6.26531794 -8 9 C-8 6 -8 6 -6.7578125 4.39453125 C-5.94957031 3.61142578 -5.94957031 3.61142578 -5.125 2.8125 C-4.59132813 2.28269531 -4.05765625 1.75289063 -3.5078125 1.20703125 C-2 0 -2 0 0 0 Z " fill="#F26A35" transform="translate(772,123)"/>
<path d="M0 0 C0.99 0.33 1.98 0.66 3 1 C0.69 3.31 -1.62 5.62 -4 8 C-4.66 7.67 -5.32 7.34 -6 7 C-4.02 4.69 -2.04 2.38 0 0 Z " fill="#F15D25" transform="translate(122,134)"/>
</svg>
